<?xml version="1.0" standalone="no"?>
<!DOCTYPE svg PUBLIC "-//W3C//DTD SVG 20010904//EN"
 "http://www.w3.org/TR/2001/REC-SVG-20010904/DTD/svg10.dtd">
<svg version="1.0" xmlns="http://www.w3.org/2000/svg"
 width="128.000000pt" height="128.000000pt" viewBox="0 0 128.000000 128.000000"
 preserveAspectRatio="xMidYMid meet">

<g transform="translate(0.000000,128.000000) scale(0.100000,-0.100000)"
fill="#000000" stroke="none">
<path d="M700 1148 c-14 -6 -41 -17 -62 -25 -20 -8 -53 -32 -73 -53 -34 -35
-40 -37 -70 -29 -45 13 -107 -2 -151 -36 -36 -28 -73 -92 -74 -130 0 -13 -17
-30 -46 -47 -61 -37 -100 -117 -90 -187 9 -65 52 -130 106 -158 38 -21 56 -23
130 -21 77 3 85 5 85 23 0 18 -8 21 -85 25 -68 4 -92 10 -118 28 -88 63 -82
196 10 252 18 11 41 20 51 20 14 0 17 9 17 50 0 43 5 56 33 86 40 44 104 56
156 29 18 -9 34 -15 35 -13 1 2 13 20 25 41 26 42 87 82 144 91 139 25 273
-121 238 -259 -6 -24 -11 -46 -11 -49 0 -3 19 -6 41 -6 105 0 172 -111 119
-197 -32 -53 -64 -67 -164 -73 -83 -5 -91 -7 -91 -25 0 -18 8 -20 95 -23 83
-2 100 1 135 21 114 65 131 214 35 301 -23 20 -54 39 -69 42 -27 6 -29 9 -33
74 -9 116 -72 197 -188 239 -63 23 -92 25 -130 9z"/>
<path d="M303 378 c-23 -28 -64 -121 -61 -136 6 -34 34 -16 65 43 33 59 38 95
17 102 -6 2 -16 -2 -21 -9z"/>
<path d="M432 378 c-17 -22 -62 -117 -62 -132 0 -24 29 -27 44 -3 32 49 59
116 53 131 -8 19 -21 21 -35 4z"/>
<path d="M830 358 c-11 -18 -28 -53 -37 -76 -14 -37 -14 -45 -3 -52 8 -5 19
-5 25 0 20 17 68 128 62 144 -10 25 -25 19 -47 -16z"/>
<path d="M966 368 c-8 -13 -24 -47 -37 -76 -18 -43 -20 -55 -9 -62 7 -4 18 -6
24 -4 17 7 69 131 63 149 -9 21 -24 19 -41 -7z"/>
</g>
</svg>
